# xmcd CD database file
#
# Track frame offsets:
#	150
#	28942
#	63542
#	88518
#	105536
#	135832
#	153220
#	191310
#
# Disc length: 2846 seconds
#
# Revision: 0
# Processed by: cddbd v1.5.2PL0 Copyright (c) Steve Scherf et al.
# Submitted via: CDex 1.70beta2
#
DISCID=5a0b1c08
DTITLE=Mike Baggetta - Small Spaces
DYEAR=2008
DGENRE=Jazz
TTITLE0=The Heights
TTITLE1=No Gravity
TTITLE2=Stellar
TTITLE3=Heartland
TTITLE4=Olive Tree
TTITLE5=Small Spaces
TTITLE6=Hospital Song
TTITLE7=Trails
EXTD=YEAR: 2008
EXTT0=
EXTT1=
EXTT2=
EXTT3=
EXTT4=
EXTT5=
EXTT6=
EXTT7=
PLAYORDER=
